<?xml version="1.0" encoding="UTF-8" standalone="no"?>
<svg
   width="16"
   height="16"
   fill="currentColor"
   class="bi bi-gear-fill"
   viewBox="0 0 16 16"
   version="1.1"
   id="svg1"
   sodipodi:docname="gear.svg"
   inkscape:version="1.4 (e7c3feb100, 2024-10-09)"
   xmlns:inkscape="http://www.inkscape.org/namespaces/inkscape"
   xmlns:sodipodi="http://sodipodi.sourceforge.net/DTD/sodipodi-0.dtd"
   xmlns="http://www.w3.org/2000/svg"
   xmlns:svg="http://www.w3.org/2000/svg">
  <defs
     id="defs1" />
  <sodipodi:namedview
     id="namedview1"
     pagecolor="#ffffff"
     bordercolor="#000000"
     borderopacity="0.25"
     inkscape:showpageshadow="2"
     inkscape:pageopacity="0.0"
     inkscape:pagecheckerboard="0"
     inkscape:deskcolor="#d1d1d1"
     inkscape:zoom="49.4375"
     inkscape:cx="8.0101138"
     inkscape:cy="8"
     inkscape:window-width="1920"
     inkscape:window-height="1000"
     inkscape:window-x="1920"
     inkscape:window-y="0"
     inkscape:window-maximized="1"
     inkscape:current-layer="svg1" />
  <path
     d="M9.405 1.05c-.413-1.4-2.397-1.4-2.81 0l-.1.34a1.464 1.464 0 0 1-2.105.872l-.31-.17c-1.283-.698-2.686.705-1.987 1.987l.169.311c.446.82.023 1.841-.872 2.105l-.34.1c-1.4.413-1.4 2.397 0 2.81l.34.1a1.464 1.464 0 0 1 .872 2.105l-.17.31c-.698 1.283.705 2.686 1.987 1.987l.311-.169a1.464 1.464 0 0 1 2.105.872l.1.34c.413 1.4 2.397 1.4 2.81 0l.1-.34a1.464 1.464 0 0 1 2.105-.872l.31.17c1.283.698 2.686-.705 1.987-1.987l-.169-.311a1.464 1.464 0 0 1 .872-2.105l.34-.1c1.4-.413 1.4-2.397 0-2.81l-.34-.1a1.464 1.464 0 0 1-.872-2.105l.17-.31c.698-1.283-.705-2.686-1.987-1.987l-.311.169a1.464 1.464 0 0 1-2.105-.872zM8 10.93a2.929 2.929 0 1 1 0-5.86 2.929 2.929 0 0 1 0 5.858z"
     id="path1" />
  <path
     style="fill:#8b0000;stroke-width:0.0202276;fill-opacity:1"
     d="M 7.7067004,15.959672 C 7.3265758,15.873893 7.0348944,15.685845 6.8243829,15.39084 6.7094382,15.229759 6.6547392,15.103375 6.5523016,14.762185 6.43362,14.366891 6.3422062,14.199129 6.129693,13.986615 5.8427196,13.699642 5.5069055,13.558001 5.1074589,13.555453 4.7989674,13.553485 4.6471703,13.596787 4.253081,13.799172 3.8625428,13.999734 3.7594286,14.038438 3.5301941,14.070506 2.9634836,14.149785 2.3389755,13.798325 2.0722284,13.249995 1.9672343,13.034167 1.922464,12.848242 1.9219694,12.625991 1.9213149,12.331864 1.9784195,12.164047 2.2640376,11.620733 2.6210215,10.941664 2.4401905,10.143474 1.8308554,9.7086616 1.6677008,9.5922371 1.550941,9.5417331 1.2044097,9.4376961 0.81461854,9.3206712 0.63680083,9.224733 0.43422606,9.0221583 0.15184752,8.7397797 0.02022756,8.4148114 0.02022756,8 c 0,-0.4148114 0.13161996,-0.7397797 0.4139985,-1.0221583 C 0.63680083,6.775267 0.81461854,6.6793288 1.2044097,6.5623039 1.550941,6.4582669 1.6677008,6.4077629 1.8308554,6.2913384 2.1979283,6.0294006 2.417726,5.6285971 2.4420175,5.1768777 2.4610862,4.8222805 2.4115107,4.6429039 2.1713434,4.1975116 1.99509,3.8706486 1.9395056,3.6977855 1.9273414,3.4386852 1.9149946,3.175694 1.9537114,2.9936312 2.0750084,2.7442903 2.1547868,2.5802967 2.1956802,2.5250971 2.3535371,2.368321 2.5562373,2.1670088 2.6939627,2.0758954 2.9081616,2.0014044 3.1273903,1.9251642 3.3309904,1.9016269 3.5301941,1.9294941 3.7849562,1.9651335 3.8509112,1.9908948 4.353277,2.2509809 4.6411641,2.4000269 4.821727,2.4463695 5.1074589,2.444547 5.5069055,2.4419991 5.8427196,2.3003578 6.129693,2.0133846 6.3429225,1.800155 6.433972,1.6325142 6.5530579,1.2338812 6.6925617,0.76690102 6.8260019,0.54184888 7.0902499,0.32788501 7.3500327,0.11753659 7.6345317,0.02182482 8,0.02182482 c 0.3654683,0 0.6499673,0.09571177 0.9097501,0.30606019 0.264248,0.21396387 0.3976882,0.43901601 0.537192,0.90599619 0.1190859,0.398633 0.2101354,0.5662738 0.4233649,0.7795034 0.286973,0.2869732 0.622788,0.4286145 1.022234,0.4311624 0.308492,0.00197 0.460289,-0.041334 0.854378,-0.2437193 0.390538,-0.2005616 0.493652,-0.2392653 0.722887,-0.2713336 0.199204,-0.027867 0.402804,-0.00433 0.622032,0.07191 0.213979,0.074415 0.351884,0.1655654 0.553696,0.3659766 0.155218,0.1541413 0.198914,0.2128352 0.278593,0.3742152 0.121954,0.2470025 0.161095,0.4309712 0.14831,0.697089 -0.01247,0.2594951 -0.06215,0.4166036 -0.233476,0.738306 -0.251829,0.472861 -0.298352,0.6366321 -0.28162,0.9913573 0.02134,0.4523528 0.243529,0.8601942 0.611804,1.1229899 0.163154,0.1164245 0.279914,0.1669285 0.626445,0.2709655 0.389792,0.1170249 0.567609,0.2129631 0.770184,0.4155378 C 15.848153,7.2602203 15.979772,7.5851886 15.979772,8 c 0,0.4148114 -0.131619,0.7397797 -0.413998,1.0221583 -0.202575,0.2025747 -0.380392,0.2985129 -0.770184,0.4155378 -0.345878,0.1038412 -0.463325,0.1545654 -0.624993,0.2699295 -0.37356,0.2665663 -0.589367,0.6626154 -0.612596,1.1242324 -0.01693,0.336491 0.01701,0.463019 0.24689,0.920354 0.241159,0.479773 0.283865,0.629782 0.267687,0.94027 -0.01239,0.237698 -0.05544,0.391642 -0.172615,0.617253 -0.08826,0.169928 -0.378474,0.470504 -0.553119,0.572865 -0.264816,0.155211 -0.598976,0.226805 -0.877038,0.187906 -0.229235,-0.03207 -0.332349,-0.07077 -0.722887,-0.271334 -0.394089,-0.202385 -0.545886,-0.245687 -0.854378,-0.243719 -0.399446,0.0025 -0.735261,0.144189 -1.022234,0.431162 -0.2132295,0.21323 -0.304279,0.380871 -0.4233649,0.779504 -0.046529,0.155752 -0.1151913,0.346902 -0.1525834,0.424779 -0.1718236,0.357855 -0.5164899,0.641148 -0.9100351,0.747988 -0.1731695,0.04701 -0.5149433,0.0575 -0.6776232,0.02079 z M 8.6113685,10.874561 C 9.71874,10.63004 10.590151,9.7857359 10.852221,8.7034138 11.021823,8.0029783 10.93473,7.2771853 10.604268,6.6370961 10.170759,5.7974084 9.3207144,5.2040603 8.3819928,5.0859028 8.0889256,5.0490142 7.6096991,5.0719434 7.3353339,5.1359814 6.1949401,5.4021542 5.3287195,6.3106929 5.1061368,7.4740834 c -0.049958,0.2611168 -0.050889,0.7877053 -0.00184,1.0417194 0.1320207,0.683736 0.487373,1.3050188 0.9826464,1.7180172 0.4307611,0.359202 0.9466963,0.594587 1.4851696,0.677577 0.2100909,0.03238 0.8244067,0.01061 1.0392572,-0.03684 z"
     id="path2" />
  <path
     style="fill:#8b0000;fill-opacity:1;stroke-width:0.0202276"
     d="M 7.6304326,15.928898 C 7.3865731,15.865003 7.173406,15.741135 6.988124,15.55566 6.7847387,15.352064 6.7047424,15.202984 6.5606453,14.759017 6.4212041,14.329396 6.3517534,14.205788 6.120354,13.975391 5.9712354,13.826919 5.9026397,13.775306 5.7642866,13.707479 5.5176708,13.586578 5.3751517,13.554271 5.0872314,13.554004 4.7799211,13.553718 4.7084622,13.574535 4.2275601,13.804439 3.7920943,14.012621 3.6924859,14.045939 3.4576965,14.061951 3.150416,14.082906 2.8813126,14.008679 2.6024892,13.826059 2.3204371,13.641324 2.1119051,13.366354 1.999567,13.031047 1.9476048,12.87595 1.9394845,12.822132 1.9399037,12.635619 c 6.464e-4,-0.287593 0.02965,-0.386579 0.2440241,-0.832838 0.09887,-0.205815 0.1949391,-0.424273 0.2134867,-0.485461 0.019073,-0.06292 0.038397,-0.216968 0.044482,-0.354608 0.00903,-0.204203 0.00398,-0.270148 -0.031349,-0.409873 C 2.3046032,10.133889 2.0310355,9.7836826 1.6633765,9.5963528 1.599594,9.5638544 1.4154235,9.4953634 1.2541087,9.4441509 0.89210336,9.329225 0.7097348,9.2419904 0.54166627,9.1033596 0.19971034,8.8212984 0.03807184,8.4671535 0.03807184,8 c 0,-0.4839436 0.18319293,-0.8636838 0.55103299,-1.1422349 C 0.75186842,6.7345104 0.89085342,6.6710345 1.2338812,6.5632894 1.5781884,6.4551426 1.7234294,6.3868037 1.8958358,6.2518271 2.1213834,6.0752461 2.2828577,5.8445599 2.378292,5.562579 2.4226454,5.4315275 2.4349332,5.3520627 2.4429166,5.1446562 2.4561019,4.8021061 2.4273974,4.6919747 2.210277,4.2520787 1.9725689,3.7704706 1.9597433,3.7302588 1.9476198,3.4285714 1.9355872,3.1291451 1.9607513,3.0078404 2.0899036,2.742687 2.1586619,2.6015241 2.2084802,2.5349334 2.3565107,2.3863193 2.5639824,2.17803 2.7119377,2.0804936 2.9433042,1.9994877 3.0867493,1.9492647 3.1333726,1.9428647 3.357775,1.9425877 3.6771665,1.9421948 3.738739,1.9602897 4.2477876,2.2041493 4.4647282,2.3080746 4.6922882,2.4053095 4.7534766,2.420227 4.9107562,2.458571 5.2984182,2.453575 5.4614412,2.411107 5.5337547,2.3922642 5.6702908,2.3384672 5.7648546,2.2915548 5.9047049,2.2221761 5.9728417,2.1702653 6.1299914,2.01337 6.3568032,1.7869256 6.4370203,1.6412017 6.571346,1.2115963 6.679802,0.86472908 6.7856518,0.6566616 6.9385369,0.48981445 7.2155861,0.18746417 7.5764151,0.03175274 8,0.03175274 c 0.4281663,0 0.7900258,0.15748637 1.0682251,0.46490648 0.1490923,0.16475244 0.2342934,0.33343846 0.3573982,0.70759778 0.1539333,0.4678585 0.215434,0.5799251 0.4445779,0.8101109 0.1594608,0.160186 0.2228958,0.2085123 0.3649438,0.2780255 0.246973,0.1208593 0.38973,0.1532808 0.677624,0.1538953 0.305173,6.512e-4 0.412334,-0.030683 0.863213,-0.2524081 0.457042,-0.224756 0.55144,-0.2521639 0.866243,-0.2515081 0.224074,4.668e-4 0.271235,0.00697 0.414471,0.057115 0.231297,0.080982 0.379279,0.1785122 0.586793,0.3867394 0.146914,0.147418 0.19831,0.2158553 0.266307,0.3546073 0.128668,0.2625517 0.154637,0.3878107 0.142584,0.687737 -0.01212,0.3016874 -0.02495,0.3418992 -0.262657,0.8235073 -0.21712,0.439896 -0.245825,0.5500274 -0.23264,0.8925775 0.008,0.2074065 0.02027,0.2868713 0.06462,0.4179228 0.09373,0.2769408 0.260116,0.5153408 0.479454,0.6869607 0.175558,0.137365 0.319579,0.2052954 0.664957,0.3136405 0.472675,0.1482783 0.715384,0.29865 0.918792,0.5692426 C 15.88847,7.403216 15.961928,7.6332755 15.961928,8 c 0,0.3667245 -0.07346,0.596784 -0.277017,0.8675772 -0.203408,0.2705926 -0.446117,0.4209643 -0.918792,0.5692426 -0.350518,0.1099574 -0.49425,0.1785184 -0.673841,0.3214234 -0.226163,0.1799642 -0.373499,0.3925738 -0.470663,0.6791778 -0.04517,0.133244 -0.05658,0.208801 -0.06458,0.427856 -0.01222,0.334592 0.01067,0.417277 0.259733,0.93805 0.224774,0.469993 0.248787,0.559024 0.236999,0.878692 -0.01473,0.399398 -0.119551,0.633882 -0.420395,0.940396 -0.19588,0.199573 -0.344949,0.297181 -0.576679,0.377599 -0.142258,0.04937 -0.191927,0.0562 -0.414471,0.05703 -0.315821,0.0012 -0.376343,-0.0164 -0.869785,-0.25247 -0.480763,-0.230007 -0.552283,-0.250853 -0.859671,-0.250567 -0.287921,2.67e-4 -0.43044,0.03257 -0.677056,0.153475 -0.138353,0.06783 -0.206948,0.11944 -0.356067,0.267912 -0.2310185,0.230018 -0.2977891,0.348912 -0.4419778,0.786997 -0.061573,0.187076 -0.1444127,0.401913 -0.1840884,0.477416 -0.1775527,0.337883 -0.5521301,0.619117 -0.93171,0.699531 -0.1969753,0.04173 -0.5103975,0.037 -0.6914372,-0.01044 z m 0.9763942,-5.045271 c 1.1557801,-0.253614 2.0211912,-1.1238997 2.2804862,-2.293331 0.06291,-0.283735 0.06291,-0.896857 0,-1.180592 C 10.753707,6.8071328 10.502198,6.3421607 10.084777,5.9260286 9.6507404,5.493333 9.1392536,5.2195066 8.5526339,5.1057905 8.3025889,5.0573192 7.8082933,5.0534546 7.5148861,5.0976769 c -1.186841,0.17888 -2.1528718,1.1149435 -2.4107354,2.3359514 -0.051764,0.2451075 -0.051117,0.8896967 0.00114,1.1327434 0.2555993,1.188859 1.1294774,2.0667063 2.318227,2.3287573 0.1476491,0.03255 0.2333618,0.03661 0.6068268,0.02873 0.2837401,-0.006 0.484105,-0.01997 0.5764855,-0.04024 z"
     id="path3" />
  <path
     style="fill:#8b0000;fill-opacity:1;stroke-width:0.0202276"
     d="M 7.6304326,15.928898 C 7.386723,15.865043 7.1734264,15.741131 6.9879555,15.55566 6.7900023,15.357707 6.700247,15.193088 6.5650409,14.779999 6.4430544,14.4073 6.4092375,14.330306 6.3007559,14.178283 5.9908671,13.744012 5.4883702,13.507641 4.9694932,13.552065 4.7438746,13.571381 4.6487955,13.603936 4.2237002,13.807424 4.0121491,13.90869 3.7768601,14.005989 3.6894912,14.028334 2.9514965,14.217082 2.1648123,13.711537 1.961621,12.917958 1.9287558,12.789601 1.9348113,12.441366 1.9723954,12.298357 1.989938,12.231606 2.0821696,12.015191 2.1773546,11.817436 2.3962878,11.362582 2.4263341,11.26619 2.44043,10.973451 2.4546971,10.677158 2.4197061,10.501637 2.2972772,10.255373 2.1503678,9.9598675 1.9519229,9.7526997 1.6788875,9.6098013 1.606574,9.5719545 1.3913176,9.4894186 1.20054,9.4263879 1.0097624,9.3633572 0.79592229,9.2783288 0.72533971,9.2374358 0.55992688,9.1416014 0.3143394,8.8955491 0.21691075,8.7280447 c -0.24503916,-0.421284 -0.24503916,-1.0348054 0,-1.4560894 C 0.3143394,7.1044509 0.55992688,6.8583986 0.72533971,6.7625642 0.79592229,6.7216712 1.0097624,6.6366428 1.20054,6.5736121 1.5934982,6.4437834 1.7645757,6.3614331 1.9263857,6.2242172 2.0911389,6.0845055 2.1956015,5.9494817 2.297426,5.7446271 2.4154802,5.5071207 2.4556571,5.2998048 2.4424668,4.9962073 2.43095,4.73113 2.3926918,4.6135363 2.179232,4.1871049 1.9769194,3.7829427 1.9595782,3.7261498 1.9476198,3.4285714 1.9355895,3.1292031 1.9614163,3.0040815 2.0894663,2.7413757 2.155755,2.6053779 2.2087929,2.5338207 2.3462879,2.3948778 2.6547012,2.083217 2.9234179,1.955195 3.3081879,1.9366095 3.5959612,1.9227092 3.7590637,1.9683165 4.2265493,2.1934046 4.630544,2.3879229 4.7461201,2.4276551 4.965866,2.4475637 5.4835853,2.4944682 5.9860428,2.2578154 6.3026797,1.817937 6.4095602,1.6694567 6.4270649,1.6296123 6.5675528,1.2150296 6.6989682,0.82722021 6.7834842,0.66052584 6.9317749,0.49665922 7.2092592,0.19002918 7.5750667,0.03034134 8,0.03034134 c 0.4249333,0 0.7907408,0.15968784 1.0682251,0.46631788 0.1482907,0.16386662 0.2328067,0.33056099 0.3642221,0.71837038 0.1404879,0.4145827 0.1579926,0.4544271 0.2648731,0.6029074 0.3170887,0.4405057 0.8124357,0.6745824 1.3331867,0.6299981 0.225086,-0.019271 0.320493,-0.051821 0.741933,-0.2531305 0.484949,-0.2316454 0.554142,-0.2519704 0.859671,-0.2525212 0.213654,-3.852e-4 0.264068,0.00656 0.42085,0.057944 0.232604,0.07624 0.389713,0.1794783 0.601825,0.3954676 0.135386,0.1378613 0.191339,0.2134189 0.256725,0.3466777 0.126801,0.2584261 0.152942,0.3857655 0.140869,0.6861989 -0.01196,0.2975784 -0.0293,0.3543713 -0.231612,0.7585335 -0.219602,0.4387014 -0.252289,0.5418009 -0.262934,0.82933 -0.01143,0.3086758 0.02338,0.4837275 0.144807,0.7281922 0.10173,0.2048163 0.206172,0.3398377 0.370973,0.4795901 0.160446,0.1360593 0.330653,0.2179107 0.726538,0.3493868 0.191157,0.063485 0.404998,0.1487013 0.4752,0.1893695 0.16479,0.095463 0.410456,0.341731 0.507737,0.5089818 0.244801,0.4208746 0.244852,1.0476751 1.18e-4,1.4516701 -0.156923,0.2590408 -0.374505,0.4582331 -0.623641,0.5709318 -0.0673,0.030442 -0.253896,0.098387 -0.414665,0.1509904 -0.16077,0.052603 -0.352256,0.126966 -0.425524,0.1652513 -0.263931,0.1379129 -0.489663,0.3725221 -0.624495,0.6490549 -0.09207,0.188832 -0.124574,0.33215 -0.136609,0.602346 -0.01421,0.319048 0.0072,0.397945 0.247331,0.91139 0.238547,0.510058 0.259965,0.58846 0.248166,0.908429 -0.01455,0.39454 -0.119827,0.633736 -0.410281,0.932172 -0.200163,0.205664 -0.35998,0.310016 -0.590528,0.385582 -0.156596,0.05133 -0.207449,0.05835 -0.42085,0.0581 -0.305158,-3.53e-4 -0.373449,-0.02042 -0.859671,-0.252679 -0.42144,-0.201309 -0.516847,-0.233859 -0.741933,-0.25313 -0.520751,-0.04458 -1.016098,0.189492 -1.3331867,0.629998 -0.1068805,0.14848 -0.1243852,0.188325 -0.2648731,0.602907 -0.1492775,0.440521 -0.2209881,0.571354 -0.4239152,0.773414 -0.2831282,0.281918 -0.6081594,0.411395 -1.0287596,0.40981 -0.1317081,-4.97e-4 -0.2535816,-0.01421 -0.3493398,-0.0393 z m 0.741279,-5.017596 C 8.7281319,10.877916 9.1206129,10.749418 9.4563843,10.556181 10.20962,10.122692 10.722452,9.4025185 10.895444,8.5352965 10.945869,8.2825084 10.945818,7.7173366 10.895347,7.4639697 10.775798,6.8638228 10.516417,6.3663535 10.103666,5.9455933 9.7160243,5.5504293 9.2713313,5.2923158 8.7202913,5.1426395 8.4900814,5.080109 8.4765075,5.0788369 8.0303413,5.0779857 7.6647506,5.0772883 7.5413991,5.0843427 7.403287,5.1138464 6.1490482,5.3817784 5.1949201,6.4355865 5.074006,7.6864728 5.049056,7.9445896 5.065576,8.3664821 5.108774,8.574381 c 0.2336554,1.1245055 1.0784297,2.007323 2.1873198,2.285821 0.1090192,0.02738 0.2255241,0.0536 0.2588996,0.05826 0.1264497,0.01766 0.5956693,0.01355 0.8167179,-0.0072 z"
     id="path4" />
  <path
     style="fill:#8b0000;fill-opacity:1;stroke-width:0.0202276"
     d="M 7.6304326,15.928898 C 7.332996,15.850965 7.0236853,15.643941 6.8488647,15.405788 6.742952,15.261506 6.6716185,15.104035 6.5636784,14.776233 6.4060375,14.297493 6.2859198,14.101038 6.0134129,13.876262 5.7396219,13.650426 5.4626905,13.555823 5.0771176,13.55641 4.7701132,13.556877 4.7132927,13.57385 4.2026984,13.817599 4.0054592,13.911758 3.7741676,14.006678 3.6887167,14.028532 3.2169891,14.14918 2.7053148,13.989691 2.3434939,13.609225 2.0692468,13.320846 1.938869,13.006546 1.9387069,12.633411 1.9385775,12.335739 1.9612461,12.260309 2.2028555,11.754457 2.3717828,11.400778 2.3991051,11.325546 2.4296757,11.129908 2.4809962,10.801479 2.4206082,10.470268 2.254774,10.17062 2.1610346,10.001241 1.8767764,9.713816 1.7193426,9.6292232 1.6581542,9.5963453 1.4329586,9.5087618 1.2189079,9.4345932 1.0048571,9.3604246 0.77753036,9.2689934 0.71373722,9.231413 0.55766054,9.1394682 0.31064868,8.8892039 0.21691075,8.7280447 c -0.24661514,-0.4239935 -0.24661514,-1.0320959 0,-1.4560894 C 0.31064868,7.1107961 0.55766054,6.8605318 0.71373722,6.768587 0.77753036,6.7310066 1.0048571,6.6395754 1.2189079,6.5654068 1.4329586,6.4912382 1.6581542,6.4037273 1.7193426,6.3709383 1.88464,6.2823604 2.179198,5.9793485 2.2691902,5.8053097 2.3856172,5.5801483 2.4300098,5.4112016 2.4420622,5.1474035 2.4566244,4.8286776 2.4158004,4.6739354 2.2023306,4.2387091 1.9732753,3.7717059 1.9597346,3.7286871 1.947329,3.4285714 1.9349573,3.1292774 1.9605966,3.0028082 2.0863869,2.7426514 2.1521078,2.6067285 2.2037864,2.5370747 2.3434864,2.3961244 2.5586522,2.1790329 2.7155954,2.076087 2.9470394,2.0002272 3.1079343,1.9474912 3.1505857,1.941989 3.3881163,1.9433268 3.6926556,1.945042 3.7776965,1.9697894 4.1926736,2.1774572 4.5423446,2.3524438 4.7082605,2.4129505 4.9057001,2.4374851 5.4170905,2.501033 5.9118428,2.3012679 6.2396151,1.898893 6.3688912,1.7401928 6.4380881,1.5958747 6.5672247,1.2156241 6.6276436,1.0377165 6.7095112,0.83043386 6.7491528,0.75499603 6.9005482,0.46688985 7.2156832,0.20198441 7.5304271,0.09824945 7.678882,0.04932089 7.727838,0.04332429 7.9898862,0.04197043 c 0.271853,-0.0014045 0.3065088,0.0028138 0.4739453,0.05768813 0.3272032,0.10723516 0.6326479,0.36157486 0.7870157,0.65533747 0.039642,0.0754378 0.1215092,0.28272047 0.1819281,0.46062807 0.1291366,0.3802506 0.1983335,0.5245687 0.3276096,0.6832689 0.3297321,0.4047809 0.8368911,0.6083511 1.3425301,0.5388832 0.206214,-0.028331 0.242103,-0.041609 0.691369,-0.2558042 0.446904,-0.2130689 0.61496,-0.2590114 0.897528,-0.2453625 0.386979,0.018692 0.657734,0.1482542 0.966129,0.4623136 0.13908,0.1416344 0.193327,0.2147811 0.2571,0.3466777 0.124317,0.2571158 0.149971,0.3844189 0.13763,0.6829706 -0.01241,0.3001157 -0.02595,0.3431345 -0.255002,0.8101377 -0.213287,0.4348543 -0.254217,0.5898573 -0.239952,0.9086944 0.01203,0.2689553 0.06469,0.4603554 0.187505,0.6815047 0.09517,0.171376 0.358858,0.4392378 0.524849,0.5331556 0.06649,0.037621 0.296238,0.1291048 0.510548,0.2032981 0.214311,0.074193 0.441851,0.1656447 0.505644,0.2032251 0.156077,0.091945 0.403088,0.3422091 0.496826,0.5033683 0.245791,0.4225766 0.245791,1.0335128 0,1.4560894 -0.09374,0.1611592 -0.340749,0.4114235 -0.496826,0.5033683 -0.06379,0.03758 -0.291333,0.1290318 -0.505644,0.2032251 -0.21431,0.074193 -0.444057,0.1656536 -0.510548,0.2032451 -0.06649,0.037592 -0.19933,0.1463931 -0.295197,0.2417812 -0.147954,0.1472136 -0.188177,0.2024836 -0.266065,0.3655946 -0.122674,0.256901 -0.145843,0.364399 -0.146054,0.677623 -2.12e-4,0.316736 0.0061,0.338426 0.254268,0.871847 0.226766,0.487446 0.248682,0.569846 0.235995,0.88729 -0.01601,0.400674 -0.118592,0.634253 -0.409529,0.932535 -0.290887,0.29823 -0.56683,0.428361 -0.950931,0.448443 -0.281088,0.0147 -0.443807,-0.02988 -0.894603,-0.245085 -0.511296,-0.244086 -0.568012,-0.261035 -0.875073,-0.261502 -0.178608,-2.72e-4 -0.291447,0.01003 -0.384323,0.03509 -0.389912,0.105218 -0.7594322,0.400902 -0.9345535,0.747816 -0.033758,0.06687 -0.1108111,0.267148 -0.1712302,0.445056 -0.1486505,0.437711 -0.2217711,0.571774 -0.4213388,0.772502 -0.2790506,0.280674 -0.6107073,0.412903 -1.0316641,0.411316 -0.1317081,-4.97e-4 -0.2535816,-0.01421 -0.3493398,-0.0393 z m 0.7134359,-5.016583 c 0.6410808,-0.05949 1.2550356,-0.356191 1.7385575,-0.840178 0.405226,-0.4056162 0.681596,-0.9190947 0.802956,-1.4918405 0.06272,-0.2959953 0.06272,-0.8645977 0,-1.160593 C 10.662956,6.3699841 9.9323202,5.5450793 8.9276187,5.2093449 8.5714943,5.0903413 8.3432981,5.0604056 7.8988622,5.0743889 7.4062329,5.0898882 7.1438918,5.1503015 6.7377968,5.3417647 6.0215693,5.6794472 5.4808783,6.2900855 5.2106261,7.0664999 5.0951773,7.3981757 5.0693708,7.5717099 5.0703007,8.0101138 c 9.04e-4,0.4262903 0.021214,0.560301 0.1383951,0.9131584 0.2097382,0.6315673 0.6151084,1.1640628 1.1629856,1.5277008 0.3095041,0.205424 0.7547726,0.386209 1.1091643,0.450336 0.1885195,0.03411 0.562616,0.03888 0.8630228,0.01101 z"
     id="path5" />
</svg>
